ISO-10303-21;
HEADER;
FILE_DESCRIPTION(('ViewDefinition [ReferenceView]'),'2;1');
FILE_NAME('sample-store.ifc','2026-09-15T00:00:00',(''),(''),'store_mcp','store_mcp','');
FILE_SCHEMA(('IFC4'));
ENDSEC;
DATA;
#1=IFCCARTESIANPOINT((0.,0.,0.));
#2=IFCDIRECTION((0.,0.,1.));
#3=IFCDIRECTION((1.,0.,0.));
#4=IFCAXIS2PLACEMENT3D(#1,#2,#3);
#5=IFCGEOMETRICREPRESENTATIONCONTEXT($,'Model',3,1.E-05,#4,$);
#6=IFCSIUNIT(*,.LENGTHUNIT.,$,.METRE.);
#7=IFCUNITASSIGNMENT((#6));
#8=IFCPROJECT('NnJ0cSVrEd1j9iGqOyW4fD',$,'Sample Candy Shop',$,$,$,$,(#5),#7);
#9=IFCLOCALPLACEMENT($,#4);
#10=IFCSITE('vQG0AzZZdhKl9iGqOyW4fD',$,'Site',$,$,#9,$,$,.ELEMENT.,$,$,$,$,$);
#11=IFCLOCALPLACEMENT(#9,#4);
#12=IFCBUILDING('R3D$lUeI0kco9iGqOyW4fD',$,'Sample Candy Shop',$,$,#11,$,$,.ELEMENT.,$,$,$);
#13=IFCLOCALPLACEMENT(#11,#4);
#14=IFCBUILDINGSTOREY('zjA$J_j0PovrAiGqOyW4fD',$,'Ground',$,$,#13,$,$,.ELEMENT.,0.);
#15=IFCRELAGGREGATES('kY8$clFNbq3sAiGqOyW4fD',$,$,$,#8,(#10));
#16=IFCRELAGGREGATES('VM6_uVnknrCtAiGqOyW4fD',$,$,$,#10,(#12));
#17=IFCRELAGGREGATES('GB5_AFK6_tLvAiGqOyW4fD',$,$,$,#12,(#14));
#18=IFCCARTESIANPOINT((10.668000000000001,16.764,0.));
#19=IFCAXIS2PLACEMENT3D(#18,#2,#3);
#20=IFCLOCALPLACEMENT(#13,#19);
#21=IFCCARTESIANPOINT((0.,0.));
#22=IFCAXIS2PLACEMENT2D(#21,$);
#23=IFCRECTANGLEPROFILEDEF(.AREA.,$,#22,21.336000000000002,33.528);
#24=IFCEXTRUDEDAREASOLID(#23,#4,#2,0.2);
#25=IFCSHAPEREPRESENTATION(#5,'Body','SweptSolid',(#24));
#26=IFCPRODUCTDEFINITIONSHAPE($,$,(#25));
#27=IFCSLAB('wQry1phjw9p6CiGqOyW4fD',$,'Floor slab',$,'Ground floor',#20,#26,$,.FLOOR.);
#28=IFCCARTESIANPOINT((10.668000000000001,-0.1524,0.));
#29=IFCAXIS2PLACEMENT3D(#28,#2,#3);
#30=IFCLOCALPLACEMENT(#13,#29);
#31=IFCCARTESIANPOINT((0.,0.));
#32=IFCAXIS2PLACEMENT2D(#31,$);
#33=IFCRECTANGLEPROFILEDEF(.AREA.,$,#32,21.336000000000002,0.3048);
#34=IFCEXTRUDEDAREASOLID(#33,#4,#2,10.);
#35=IFCSHAPEREPRESENTATION(#5,'Body','SweptSolid',(#34));
#36=IFCPRODUCTDEFINITIONSHAPE($,$,(#35));
#37=IFCWALL('afawtM2LtRHJEiGqOyW4fD',$,'Storefront wall',$,'Shell',#30,#36,$,.STANDARD.);
#38=IFCCARTESIANPOINT((10.668000000000001,33.6804,0.));
#39=IFCAXIS2PLACEMENT3D(#38,#2,#3);
#40=IFCLOCALPLACEMENT(#13,#39);
#41=IFCCARTESIANPOINT((0.,0.));
#42=IFCAXIS2PLACEMENT2D(#41,$);
#43=IFCRECTANGLEPROFILEDEF(.AREA.,$,#42,21.336000000000002,0.3048);
#44=IFCEXTRUDEDAREASOLID(#43,#4,#2,10.);
#45=IFCSHAPEREPRESENTATION(#5,'Body','SweptSolid',(#44));
#46=IFCPRODUCTDEFINITIONSHAPE($,$,(#45));
#47=IFCWALL('EuKtkvQzqjlXGjGqOyW4fD',$,'Back wall',$,'Shell',#40,#46,$,.STANDARD.);
#48=IFCCARTESIANPOINT((-0.1524,16.764,0.));
#49=IFCAXIS2PLACEMENT3D(#48,#2,#3);
#50=IFCLOCALPLACEMENT(#13,#49);
#51=IFCCARTESIANPOINT((0.,0.));
#52=IFCAXIS2PLACEMENT2D(#51,$);
#53=IFCRECTANGLEPROFILEDEF(.AREA.,$,#52,0.3048,33.528);
#54=IFCEXTRUDEDAREASOLID(#53,#4,#2,10.);
#55=IFCSHAPEREPRESENTATION(#5,'Body','SweptSolid',(#54));
#56=IFCPRODUCTDEFINITIONSHAPE($,$,(#55));
#57=IFCWALL('u84raSnbm_DkIjGqOyW4fD',$,'West wall',$,'Shell',#50,#56,$,.STANDARD.);
#58=IFCCARTESIANPOINT((21.488400000000002,16.764,0.));
#59=IFCAXIS2PLACEMENT3D(#58,#2,#3);
#60=IFCLOCALPLACEMENT(#13,#59);
#61=IFCCARTESIANPOINT((0.,0.));
#62=IFCAXIS2PLACEMENT2D(#61,$);
#63=IFCRECTANGLEPROFILEDEF(.AREA.,$,#62,0.3048,33.528);
#64=IFCEXTRUDEDAREASOLID(#63,#4,#2,10.);
#65=IFCSHAPEREPRESENTATION(#5,'Body','SweptSolid',(#64));
#66=IFCPRODUCTDEFINITIONSHAPE($,$,(#65));
#67=IFCWALL('YNqpR$8DjGhyKjGqOyW4fD',$,'East wall',$,'Shell',#60,#66,$,.STANDARD.);
#68=IFCCARTESIANPOINT((10.668000000000001,28.041600000000003,0.));
#69=IFCAXIS2PLACEMENT3D(#68,#2,#3);
#70=IFCLOCALPLACEMENT(#13,#69);
#71=IFCCARTESIANPOINT((0.,0.));
#72=IFCAXIS2PLACEMENT2D(#71,$);
#73=IFCRECTANGLEPROFILEDEF(.AREA.,$,#72,21.336000000000002,10.972800000000001);
#74=IFCEXTRUDEDAREASOLID(#73,#4,#2,10.);
#75=IFCSHAPEREPRESENTATION(#5,'Body','SweptSolid',(#74));
#76=IFCPRODUCTDEFINITIONSHAPE($,$,(#75));
#77=IFCSPACE('CcamHZWrfY99MkGqOyW4fD',$,'Stockroom',$,'Back of house',#70,#76,$,.ELEMENT.,.INTERNAL.,0.);
#78=IFCCARTESIANPOINT((19.2024,31.3944,0.));
#79=IFCAXIS2PLACEMENT3D(#78,#2,#3);
#80=IFCLOCALPLACEMENT(#13,#79);
#81=IFCCARTESIANPOINT((0.,0.));
#82=IFCAXIS2PLACEMENT2D(#81,$);
#83=IFCRECTANGLEPROFILEDEF(.AREA.,$,#82,4.2672,4.2672);
#84=IFCEXTRUDEDAREASOLID(#83,#4,#2,9.);
#85=IFCSHAPEREPRESENTATION(#5,'Body','SweptSolid',(#84));
#86=IFCPRODUCTDEFINITIONSHAPE($,$,(#85));
#87=IFCSPACE('srKk86tTcqdNOkGqOyW4fD',$,'Manager office',$,'Office',#80,#86,$,.ELEMENT.,.INTERNAL.,0.);
#88=IFCCARTESIANPOINT((0.45720000000000005,12.192,0.));
#89=IFCAXIS2PLACEMENT3D(#88,#2,#3);
#90=IFCLOCALPLACEMENT(#13,#89);
#91=IFCCARTESIANPOINT((0.,0.));
#92=IFCAXIS2PLACEMENT2D(#91,$);
#93=IFCRECTANGLEPROFILEDEF(.AREA.,$,#92,0.9144000000000001,10.972800000000001);
#94=IFCEXTRUDEDAREASOLID(#93,#4,#2,6.);
#95=IFCSHAPEREPRESENTATION(#5,'Body','SweptSolid',(#94));
#96=IFCPRODUCTDEFINITIONSHAPE($,$,(#95));
#97=IFCBUILDINGELEMENTPROXY('W44i_fE5Y65aQkGqOyW4fD',$,'Bulk bin wall BULK',$,'Bulk bin wall',#90,#96,$,.ELEMENT.);
#98=IFCCARTESIANPOINT((0.45720000000000005,3.3528000000000002,0.));
#99=IFCAXIS2PLACEMENT3D(#98,#2,#3);
#100=IFCLOCALPLACEMENT(#13,#99);
#101=IFCCARTESIANPOINT((0.,0.));
#102=IFCAXIS2PLACEMENT2D(#101,$);
#103=IFCRECTANGLEPROFILEDEF(.AREA.,$,#102,0.9144000000000001,3.6576000000000004);
#104=IFCEXTRUDEDAREASOLID(#103,#4,#2,6.);
#105=IFCSHAPEREPRESENTATION(#5,'Body','SweptSolid',(#104));
#106=IFCPRODUCTDEFINITIONSHAPE($,$,(#105));
#107=IFCBUILDINGELEMENTPROXY('AJqgrCbjVNZnSkGqOyW4fD',$,'Wall shelving WALL',$,'Wall shelving',#100,#106,$,.ELEMENT.);
#108=IFCCARTESIANPOINT((4.2672,12.192,0.));
#109=IFCAXIS2PLACEMENT3D(#108,#2,#3);
#110=IFCLOCALPLACEMENT(#13,#109);
#111=IFCCARTESIANPOINT((0.,0.));
#112=IFCAXIS2PLACEMENT2D(#111,$);
#113=IFCRECTANGLEPROFILEDEF(.AREA.,$,#112,1.2192,10.972800000000001);
#114=IFCEXTRUDEDAREASOLID(#113,#4,#2,6.);
#115=IFCSHAPEREPRESENTATION(#5,'Body','SweptSolid',(#114));
#116=IFCPRODUCTDEFINITIONSHAPE($,$,(#115));
#117=IFCBUILDINGELEMENTPROXY('qYZdhlzLSf1$UlGqOyW4fD',$,'Gondola run G1',$,'Gondola run',#110,#116,$,.ELEMENT.);
#118=IFCCARTESIANPOINT((7.315200000000001,12.192,0.));
#119=IFCAXIS2PLACEMENT3D(#118,#2,#3);
#120=IFCLOCALPLACEMENT(#13,#119);
#121=IFCCARTESIANPOINT((0.,0.));
#122=IFCAXIS2PLACEMENT2D(#121,$);
#123=IFCRECTANGLEPROFILEDEF(.AREA.,$,#122,1.2192,10.972800000000001);
#124=IFCEXTRUDEDAREASOLID(#123,#4,#2,6.);
#125=IFCSHAPEREPRESENTATION(#5,'Body','SweptSolid',(#124));
#126=IFCPRODUCTDEFINITIONSHAPE($,$,(#125));
#127=IFCBUILDINGELEMENTPROXY('UoJbYJKyOxVCVlGqOyW4fD',$,'Gondola run G2',$,'Gondola run',#120,#126,$,.ELEMENT.);
#128=IFCCARTESIANPOINT((10.3632,12.192,0.));
#129=IFCAXIS2PLACEMENT3D(#128,#2,#3);
#130=IFCLOCALPLACEMENT(#13,#129);
#131=IFCCARTESIANPOINT((0.,0.));
#132=IFCAXIS2PLACEMENT2D(#131,$);
#133=IFCRECTANGLEPROFILEDEF(.AREA.,$,#132,1.2192,10.972800000000001);
#134=IFCEXTRUDEDAREASOLID(#133,#4,#2,6.);
#135=IFCSHAPEREPRESENTATION(#5,'Body','SweptSolid',(#134));
#136=IFCPRODUCTDEFINITIONSHAPE($,$,(#135));
#137=IFCBUILDINGELEMENTPROXY('813ZOshaLDzQXlGqOyW4fD',$,'Gondola run G3',$,'Gondola run',#130,#136,$,.ELEMENT.);
#138=IFCCARTESIANPOINT((13.411200000000001,12.192,0.));
#139=IFCAXIS2PLACEMENT3D(#138,#2,#3);
#140=IFCLOCALPLACEMENT(#13,#139);
#141=IFCCARTESIANPOINT((0.,0.));
#142=IFCAXIS2PLACEMENT2D(#141,$);
#143=IFCRECTANGLEPROFILEDEF(.AREA.,$,#142,1.2192,10.972800000000001);
#144=IFCEXTRUDEDAREASOLID(#143,#4,#2,6.);
#145=IFCSHAPEREPRESENTATION(#5,'Body','SweptSolid',(#144));
#146=IFCPRODUCTDEFINITIONSHAPE($,$,(#145));
#147=IFCBUILDINGELEMENTPROXY('oGpWFP3CHVRdZlGqOyW4fD',$,'Gondola run G4',$,'Gondola run',#140,#146,$,.ELEMENT.);
#148=IFCCARTESIANPOINT((4.2672,6.3246,0.));
#149=IFCAXIS2PLACEMENT3D(#148,#2,#3);
#150=IFCLOCALPLACEMENT(#13,#149);
#151=IFCCARTESIANPOINT((0.,0.));
#152=IFCAXIS2PLACEMENT2D(#151,$);
#153=IFCRECTANGLEPROFILEDEF(.AREA.,$,#152,1.2192,0.762);
#154=IFCEXTRUDEDAREASOLID(#153,#4,#2,6.);
#155=IFCSHAPEREPRESENTATION(#5,'Body','SweptSolid',(#154));
#156=IFCPRODUCTDEFINITIONSHAPE($,$,(#155));
#157=IFCBUILDINGELEMENTPROXY('SVZU5yQqEmvrbmGqOyW4fD',$,'Endcap G1-EF',$,'Endcap',#150,#156,$,.ELEMENT.);
#158=IFCCARTESIANPOINT((4.2672,18.0594,0.));
#159=IFCAXIS2PLACEMENT3D(#158,#2,#3);
#160=IFCLOCALPLACEMENT(#13,#159);
#161=IFCCARTESIANPOINT((0.,0.));
#162=IFCAXIS2PLACEMENT2D(#161,$);
#163=IFCRECTANGLEPROFILEDEF(.AREA.,$,#162,1.2192,0.762);
#164=IFCEXTRUDEDAREASOLID(#163,#4,#2,6.);
#165=IFCSHAPEREPRESENTATION(#5,'Body','SweptSolid',(#164));
#166=IFCPRODUCTDEFINITIONSHAPE($,$,(#165));
#167=IFCBUILDINGELEMENTPROXY('6kJSyWnSA2N2dmGqOyW4fD',$,'Endcap G1-EB',$,'Endcap',#160,#166,$,.ELEMENT.);
#168=IFCCARTESIANPOINT((7.315200000000001,6.3246,0.));
#169=IFCAXIS2PLACEMENT3D(#168,#2,#3);
#170=IFCLOCALPLACEMENT(#13,#169);
#171=IFCCARTESIANPOINT((0.,0.));
#172=IFCAXIS2PLACEMENT2D(#171,$);
#173=IFCRECTANGLEPROFILEDEF(.AREA.,$,#172,1.2192,0.762);
#174=IFCEXTRUDEDAREASOLID(#173,#4,#2,6.);
#175=IFCSHAPEREPRESENTATION(#5,'Body','SweptSolid',(#174));
#176=IFCPRODUCTDEFINITIONSHAPE($,$,(#175));
#177=IFCBUILDINGELEMENTPROXY('mz3Po3947KrFfmGqOyW4fD',$,'Endcap G2-EF',$,'Endcap',#170,#176,$,.ELEMENT.);
#178=IFCCARTESIANPOINT((7.315200000000001,18.0594,0.));
#179=IFCAXIS2PLACEMENT3D(#178,#2,#3);
#180=IFCLOCALPLACEMENT(#13,#179);
#181=IFCCARTESIANPOINT((0.,0.));
#182=IFCAXIS2PLACEMENT2D(#181,$);
#183=IFCRECTANGLEPROFILEDEF(.AREA.,$,#182,1.2192,0.762);
#184=IFCEXTRUDEDAREASOLID(#183,#4,#2,6.);
#185=IFCSHAPEREPRESENTATION(#5,'Body','SweptSolid',(#184));
#186=IFCPRODUCTDEFINITIONSHAPE($,$,(#185));
#187=IFCBUILDINGELEMENTPROXY('QCpNfcWi3cJThnGqOyW4fD',$,'Endcap G2-EB',$,'Endcap',#180,#186,$,.ELEMENT.);
#188=IFCCARTESIANPOINT((10.3632,6.3246,0.));
#189=IFCAXIS2PLACEMENT3D(#188,#2,#3);
#190=IFCLOCALPLACEMENT(#13,#189);
#191=IFCCARTESIANPOINT((0.,0.));
#192=IFCAXIS2PLACEMENT2D(#191,$);
#193=IFCRECTANGLEPROFILEDEF(.AREA.,$,#192,1.2192,0.762);
#194=IFCEXTRUDEDAREASOLID(#193,#4,#2,6.);
#195=IFCSHAPEREPRESENTATION(#5,'Body','SweptSolid',(#194));
#196=IFCPRODUCTDEFINITIONSHAPE($,$,(#195));
#197=IFCBUILDINGELEMENTPROXY('4SZLW9tK0ungjnGqOyW4fD',$,'Endcap G3-EF',$,'Endcap',#190,#196,$,.ELEMENT.);
#198=IFCCARTESIANPOINT((10.3632,18.0594,0.));
#199=IFCAXIS2PLACEMENT3D(#198,#2,#3);
#200=IFCLOCALPLACEMENT(#13,#199);
#201=IFCCARTESIANPOINT((0.,0.));
#202=IFCAXIS2PLACEMENT2D(#201,$);
#203=IFCRECTANGLEPROFILEDEF(.AREA.,$,#202,1.2192,0.762);
#204=IFCEXTRUDEDAREASOLID(#203,#4,#2,6.);
#205=IFCSHAPEREPRESENTATION(#5,'Body','SweptSolid',(#204));
#206=IFCPRODUCTDEFINITIONSHAPE($,$,(#205));
#207=IFCBUILDINGELEMENTPROXY('khIIMiFyz9FulnGqOyW4fD',$,'Endcap G3-EB',$,'Endcap',#200,#206,$,.ELEMENT.);
#208=IFCCARTESIANPOINT((13.411200000000001,6.3246,0.));
#209=IFCAXIS2PLACEMENT3D(#208,#2,#3);
#210=IFCLOCALPLACEMENT(#13,#209);
#211=IFCCARTESIANPOINT((0.,0.));
#212=IFCAXIS2PLACEMENT2D(#211,$);
#213=IFCRECTANGLEPROFILEDEF(.AREA.,$,#212,1.2192,0.762);
#214=IFCEXTRUDEDAREASOLID(#213,#4,#2,6.);
#215=IFCSHAPEREPRESENTATION(#5,'Body','SweptSolid',(#214));
#216=IFCPRODUCTDEFINITIONSHAPE($,$,(#215));
#217=IFCBUILDINGELEMENTPROXY('Ow2GDGcavRj5nnGqOyW4fD',$,'Endcap G4-EF',$,'Endcap',#210,#216,$,.ELEMENT.);
#218=IFCCARTESIANPOINT((13.411200000000001,18.0594,0.));
#219=IFCAXIS2PLACEMENT3D(#218,#2,#3);
#220=IFCLOCALPLACEMENT(#13,#219);
#221=IFCCARTESIANPOINT((0.,0.));
#222=IFCAXIS2PLACEMENT2D(#221,$);
#223=IFCRECTANGLEPROFILEDEF(.AREA.,$,#222,1.2192,0.762);
#224=IFCEXTRUDEDAREASOLID(#223,#4,#2,6.);
#225=IFCSHAPEREPRESENTATION(#5,'Body','SweptSolid',(#224));
#226=IFCPRODUCTDEFINITIONSHAPE($,$,(#225));
#227=IFCBUILDINGELEMENTPROXY('29oE3pzBsjBJpoHqOyW4fD',$,'Endcap G4-EB',$,'Endcap',#220,#226,$,.ELEMENT.);
#228=IFCCARTESIANPOINT((17.6784,10.972800000000001,0.));
#229=IFCAXIS2PLACEMENT3D(#228,#2,#3);
#230=IFCLOCALPLACEMENT(#13,#229);
#231=IFCCARTESIANPOINT((0.,0.));
#232=IFCAXIS2PLACEMENT2D(#231,$);
#233=IFCRECTANGLEPROFILEDEF(.AREA.,$,#232,0.9144000000000001,7.315200000000001);
#234=IFCEXTRUDEDAREASOLID(#233,#4,#2,6.);
#235=IFCSHAPEREPRESENTATION(#5,'Body','SweptSolid',(#234));
#236=IFCPRODUCTDEFINITIONSHAPE($,$,(#235));
#237=IFCBUILDINGELEMENTPROXY('iOYCwMLpo$fWroHqOyW4fD',$,'Showcase CASE',$,'Showcase',#230,#236,$,.ELEMENT.);
#238=IFCCARTESIANPOINT((16.88592,3.6576000000000004,0.));
#239=IFCAXIS2PLACEMENT3D(#238,#2,#3);
#240=IFCLOCALPLACEMENT(#13,#239);
#241=IFCCARTESIANPOINT((0.,0.));
#242=IFCAXIS2PLACEMENT2D(#241,$);
#243=IFCRECTANGLEPROFILEDEF(.AREA.,$,#242,0.36576000000000003,3.6576000000000004);
#244=IFCEXTRUDEDAREASOLID(#243,#4,#2,6.);
#245=IFCSHAPEREPRESENTATION(#5,'Body','SweptSolid',(#244));
#246=IFCPRODUCTDEFINITIONSHAPE($,$,(#245));
#247=IFCBUILDINGELEMENTPROXY('MdI9mviRlH7jsoHqOyW4fD',$,'Impulse rack IMP',$,'Impulse rack',#240,#246,$,.ELEMENT.);
#248=IFCCARTESIANPOINT((9.144,3.2004,0.));
#249=IFCAXIS2PLACEMENT3D(#248,#2,#3);
#250=IFCLOCALPLACEMENT(#13,#249);
#251=IFCCARTESIANPOINT((0.,0.));
#252=IFCAXIS2PLACEMENT2D(#251,$);
#253=IFCRECTANGLEPROFILEDEF(.AREA.,$,#252,1.2192,2.7432000000000003);
#254=IFCEXTRUDEDAREASOLID(#253,#4,#2,6.);
#255=IFCSHAPEREPRESENTATION(#5,'Body','SweptSolid',(#254));
#256=IFCPRODUCTDEFINITIONSHAPE($,$,(#255));
#257=IFCBUILDINGELEMENTPROXY('0s27dT33hYbxuoHqOyW4fD',$,'Seasonal table SEAS-1',$,'Seasonal table',#250,#256,$,.ELEMENT.);
#258=IFCCARTESIANPOINT((12.192,3.2004,0.));
#259=IFCAXIS2PLACEMENT3D(#258,#2,#3);
#260=IFCLOCALPLACEMENT(#13,#259);
#261=IFCCARTESIANPOINT((0.,0.));
#262=IFCAXIS2PLACEMENT2D(#261,$);
#263=IFCRECTANGLEPROFILEDEF(.AREA.,$,#262,1.2192,2.7432000000000003);
#264=IFCEXTRUDEDAREASOLID(#263,#4,#2,6.);
#265=IFCSHAPEREPRESENTATION(#5,'Body','SweptSolid',(#264));
#266=IFCPRODUCTDEFINITIONSHAPE($,$,(#265));
#267=IFCBUILDINGELEMENTPROXY('g6o5T0Rheq38wpHqOyW4fD',$,'Seasonal table SEAS-2',$,'Seasonal table',#260,#266,$,.ELEMENT.);
#268=IFCCARTESIANPOINT((1.2192,27.432000000000002,0.));
#269=IFCAXIS2PLACEMENT3D(#268,#2,#3);
#270=IFCLOCALPLACEMENT(#13,#269);
#271=IFCCARTESIANPOINT((0.,0.));
#272=IFCAXIS2PLACEMENT2D(#271,$);
#273=IFCRECTANGLEPROFILEDEF(.AREA.,$,#272,1.2192,6.096);
#274=IFCEXTRUDEDAREASOLID(#273,#4,#2,6.);
#275=IFCSHAPEREPRESENTATION(#5,'Body','SweptSolid',(#274));
#276=IFCPRODUCTDEFINITIONSHAPE($,$,(#275));
#277=IFCBUILDINGELEMENTPROXY('KLY2KZoJa6XMypHqOyW4fD',$,'Pallet rack RACK-1',$,'Pallet rack',#270,#276,$,.ELEMENT.);
#278=IFCCARTESIANPOINT((4.8768,27.432000000000002,0.));
#279=IFCAXIS2PLACEMENT3D(#278,#2,#3);
#280=IFCLOCALPLACEMENT(#13,#279);
#281=IFCCARTESIANPOINT((0.,0.));
#282=IFCAXIS2PLACEMENT2D(#281,$);
#283=IFCRECTANGLEPROFILEDEF(.AREA.,$,#282,1.2192,6.096);
#284=IFCEXTRUDEDAREASOLID(#283,#4,#2,6.);
#285=IFCSHAPEREPRESENTATION(#5,'Body','SweptSolid',(#284));
#286=IFCPRODUCTDEFINITIONSHAPE($,$,(#285));
#287=IFCBUILDINGELEMENTPROXY('_aH0A69xXO$Z_pHqOyW4fD',$,'Pallet rack RACK-2',$,'Pallet rack',#280,#286,$,.ELEMENT.);
#288=IFCCARTESIANPOINT((9.144,27.127200000000002,0.));
#289=IFCAXIS2PLACEMENT3D(#288,#2,#3);
#290=IFCLOCALPLACEMENT(#13,#289);
#291=IFCCARTESIANPOINT((0.,0.));
#292=IFCAXIS2PLACEMENT2D(#291,$);
#293=IFCRECTANGLEPROFILEDEF(.AREA.,$,#292,0.6096,5.486400000000001);
#294=IFCEXTRUDEDAREASOLID(#293,#4,#2,6.);
#295=IFCSHAPEREPRESENTATION(#5,'Body','SweptSolid',(#294));
#296=IFCPRODUCTDEFINITIONSHAPE($,$,(#295));
#297=IFCBUILDINGELEMENTPROXY('ep1_1fWZUgTn0qHqOyW4fD',$,'Back stock shelving SHELF-1',$,'Back stock shelving',#290,#296,$,.ELEMENT.);
#298=IFCCARTESIANPOINT((11.5824,27.127200000000002,0.));
#299=IFCAXIS2PLACEMENT3D(#298,#2,#3);
#300=IFCLOCALPLACEMENT(#13,#299);
#301=IFCCARTESIANPOINT((0.,0.));
#302=IFCAXIS2PLACEMENT2D(#301,$);
#303=IFCRECTANGLEPROFILEDEF(.AREA.,$,#302,0.6096,5.486400000000001);
#304=IFCEXTRUDEDAREASOLID(#303,#4,#2,6.);
#305=IFCSHAPEREPRESENTATION(#5,'Body','SweptSolid',(#304));
#306=IFCPRODUCTDEFINITIONSHAPE($,$,(#305));
#307=IFCBUILDINGELEMENTPROXY('I2nxtDuBQxw_2qHqOyW4fD',$,'Back stock shelving SHELF-2',$,'Back stock shelving',#300,#306,$,.ELEMENT.);
#308=IFCCARTESIANPOINT((17.6784,2.4384,0.));
#309=IFCAXIS2PLACEMENT3D(#308,#2,#3);
#310=IFCLOCALPLACEMENT(#13,#309);
#311=IFCCARTESIANPOINT((0.,0.));
#312=IFCAXIS2PLACEMENT2D(#311,$);
#313=IFCRECTANGLEPROFILEDEF(.AREA.,$,#312,0.9144000000000001,0.6096);
#314=IFCEXTRUDEDAREASOLID(#313,#4,#2,3.5);
#315=IFCSHAPEREPRESENTATION(#5,'Body','SweptSolid',(#314));
#316=IFCPRODUCTDEFINITIONSHAPE($,$,(#315));
#317=IFCFURNISHINGELEMENT('yHXvkmFpNDOB4qHqOyW4fD',$,'Checkout register REG-1',$,'Checkout register',#310,#316,$);
#318=IFCCARTESIANPOINT((17.6784,4.572,0.));
#319=IFCAXIS2PLACEMENT3D(#318,#2,#3);
#320=IFCLOCALPLACEMENT(#13,#319);
#321=IFCCARTESIANPOINT((0.,0.));
#322=IFCAXIS2PLACEMENT2D(#321,$);
#323=IFCRECTANGLEPROFILEDEF(.AREA.,$,#322,0.9144000000000001,0.6096);
#324=IFCEXTRUDEDAREASOLID(#323,#4,#2,3.5);
#325=IFCSHAPEREPRESENTATION(#5,'Body','SweptSolid',(#324));
#326=IFCPRODUCTDEFINITIONSHAPE($,$,(#325));
#327=IFCFURNISHINGELEMENT('cWHtaJcQJVsP6qHqOyW4fD',$,'Checkout register REG-2',$,'Checkout register',#320,#326,$);
#328=IFCCARTESIANPOINT((18.8976,9.144,0.));
#329=IFCAXIS2PLACEMENT3D(#328,#2,#3);
#330=IFCLOCALPLACEMENT(#13,#329);
#331=IFCCARTESIANPOINT((0.,0.));
#332=IFCAXIS2PLACEMENT2D(#331,$);
#333=IFCRECTANGLEPROFILEDEF(.AREA.,$,#332,0.9144000000000001,0.6096);
#334=IFCEXTRUDEDAREASOLID(#333,#4,#2,3.5);
#335=IFCSHAPEREPRESENTATION(#5,'Body','SweptSolid',(#334));
#336=IFCPRODUCTDEFINITIONSHAPE($,$,(#335));
#337=IFCFURNISHINGELEMENT('Gm1rRs_2GnKc8rHqOyW4fD',$,'Service station CTR-1',$,'Service station',#330,#336,$);
#338=IFCCARTESIANPOINT((18.8976,12.8016,0.));
#339=IFCAXIS2PLACEMENT3D(#338,#2,#3);
#340=IFCLOCALPLACEMENT(#13,#339);
#341=IFCCARTESIANPOINT((0.,0.));
#342=IFCAXIS2PLACEMENT2D(#341,$);
#343=IFCRECTANGLEPROFILEDEF(.AREA.,$,#342,0.9144000000000001,0.6096);
#344=IFCEXTRUDEDAREASOLID(#343,#4,#2,3.5);
#345=IFCSHAPEREPRESENTATION(#5,'Body','SweptSolid',(#344));
#346=IFCPRODUCTDEFINITIONSHAPE($,$,(#345));
#347=IFCFURNISHINGELEMENT('w$noHPLgC2oqArHqOyW4fD',$,'Service station CTR-2',$,'Service station',#340,#346,$);
#348=IFCCARTESIANPOINT((17.6784,15.8496,0.));
#349=IFCAXIS2PLACEMENT3D(#348,#2,#3);
#350=IFCLOCALPLACEMENT(#13,#349);
#351=IFCCARTESIANPOINT((0.,0.));
#352=IFCAXIS2PLACEMENT2D(#351,$);
#353=IFCRECTANGLEPROFILEDEF(.AREA.,$,#352,0.9144000000000001,0.6096);
#354=IFCEXTRUDEDAREASOLID(#353,#4,#2,3.5);
#355=IFCSHAPEREPRESENTATION(#5,'Body','SweptSolid',(#354));
#356=IFCPRODUCTDEFINITIONSHAPE($,$,(#355));
#357=IFCFURNISHINGELEMENT('aEXm8ziI9KG1CrHqOyW4fD',$,'Gift wrap station WRAP-1',$,'Gift wrap station',#350,#356,$);
#358=IFCCARTESIANPOINT((10.668000000000001,0.,0.));
#359=IFCAXIS2PLACEMENT3D(#358,#2,#3);
#360=IFCLOCALPLACEMENT(#13,#359);
#361=IFCCARTESIANPOINT((0.,0.));
#362=IFCAXIS2PLACEMENT2D(#361,$);
#363=IFCRECTANGLEPROFILEDEF(.AREA.,$,#362,2.4384,0.3048);
#364=IFCEXTRUDEDAREASOLID(#363,#4,#2,2.4);
#365=IFCSHAPEREPRESENTATION(#5,'Body','SweptSolid',(#364));
#366=IFCPRODUCTDEFINITIONSHAPE($,$,(#365));
#367=IFCDOOR('ETGk$W4w5ckEDrHqOyW4fD',$,'Customer entrance',$,'Automatic sliding door',#360,#366,$,3.,2.4384,.DOOR.,.SWINGING.,$);
#368=IFCCARTESIANPOINT((12.8016,33.528,0.));
#369=IFCAXIS2PLACEMENT3D(#368,#2,#3);
#370=IFCLOCALPLACEMENT(#13,#369);
#371=IFCCARTESIANPOINT((0.,0.));
#372=IFCAXIS2PLACEMENT2D(#371,$);
#373=IFCRECTANGLEPROFILEDEF(.AREA.,$,#372,3.6576000000000004,0.3048);
#374=IFCEXTRUDEDAREASOLID(#373,#4,#2,3.);
#375=IFCSHAPEREPRESENTATION(#5,'Body','SweptSolid',(#374));
#376=IFCPRODUCTDEFINITIONSHAPE($,$,(#375));
#377=IFCDOOR('ui0hr3RY2uCSFsHqOyW4fD',$,'Roll-up door',$,'Roll-up door at grade',#370,#376,$,3.,3.6576000000000004,.DOOR.,.SWINGING.,$);
#378=IFCCARTESIANPOINT((15.8496,33.528,0.));
#379=IFCAXIS2PLACEMENT3D(#378,#2,#3);
#380=IFCLOCALPLACEMENT(#13,#379);
#381=IFCCARTESIANPOINT((0.,0.));
#382=IFCAXIS2PLACEMENT2D(#381,$);
#383=IFCRECTANGLEPROFILEDEF(.AREA.,$,#382,3.048,0.3048);
#384=IFCEXTRUDEDAREASOLID(#383,#4,#2,3.);
#385=IFCSHAPEREPRESENTATION(#5,'Body','SweptSolid',(#384));
#386=IFCPRODUCTDEFINITIONSHAPE($,$,(#385));
#387=IFCDOOR('YxmficoA$AgfHsHqOyW4fD',$,'Dock door 1',$,'Overhead dock door',#380,#386,$,3.,3.048,.DOOR.,.SWINGING.,$);
#388=IFCCARTESIANPOINT((18.8976,33.528,0.));
#389=IFCAXIS2PLACEMENT3D(#388,#2,#3);
#390=IFCLOCALPLACEMENT(#13,#389);
#391=IFCCARTESIANPOINT((0.,0.));
#392=IFCAXIS2PLACEMENT2D(#391,$);
#393=IFCRECTANGLEPROFILEDEF(.AREA.,$,#392,3.048,0.3048);
#394=IFCEXTRUDEDAREASOLID(#393,#4,#2,3.);
#395=IFCSHAPEREPRESENTATION(#5,'Body','SweptSolid',(#394));
#396=IFCPRODUCTDEFINITIONSHAPE($,$,(#395));
#397=IFCDOOR('CAWdYAAoxR8tJsHqOyW4fD',$,'Dock door 2',$,'Overhead dock door',#390,#396,$,3.,3.048,.DOOR.,.SWINGING.,$);
#398=IFCRELCONTAINEDINSPATIALSTRUCTURE('z$Ucqwi98TIuJsHqOyW4fD',$,$,$,(#27,#37,#47,#57,#67,#77,#87,#97,#107,#117,#127,#137,#147,#157,#167,#177,#187,#197,#207,#217,#227,#237,#247,#257,#267,#277,#287,#297,#307,#317,#327,#337,#347,#357,#367,#377,#387,#397),#14);
ENDSEC;
END-ISO-10303-21;
