0
SECTION
2
HEADER
9
$INSUNITS
70
4
0
ENDSEC
0
SECTION
2
BLOCKS
0
BLOCK
8
0
2
GONDOLA_BAY
70
0
10
0
20
0
0
LWPOLYLINE
8
0
90
4
70
1
10
0.0
20
0.0
10
1219.2
20
0.0
10
1219.2
20
1219.2
10
0.0
20
1219.2
0
ENDBLK
0
BLOCK
8
0
2
DOOR_8FT
70
0
10
0
20
0
0
LINE
8
0
10
-1219.2
20
0
11
1219.2
21
0
0
ENDBLK
0
BLOCK
8
0
2
DOOR_10FT
70
0
10
0
20
0
0
LINE
8
0
10
-1524
20
0
11
1524
21
0
0
ENDBLK
0
BLOCK
8
0
2
DOOR_12FT
70
0
10
0
20
0
0
LINE
8
0
10
-1828.8000000000002
20
0
11
1828.8000000000002
21
0
0
ENDBLK
0
ENDSEC
0
SECTION
2
ENTITIES
0
LWPOLYLINE
8
A-FLOR-OTLN
90
4
70
1
10
0.0
20
0.0
10
0.0
20
-21336.0
10
33528.0
20
-21336.0
10
33528.0
20
0.0
0
LINE
8
A-WALL
10
0
20
0
11
0
21
-21336
0
LINE
8
A-WALL
10
0
20
-21336
11
33528
21
-21336
0
LINE
8
A-WALL
10
33528
20
-21336
11
33528
21
0
0
LINE
8
A-WALL
10
33528
20
0
11
0
21
0
0
LWPOLYLINE
8
A-GLAZ
90
2
70
0
10
0.0
20
-1828.8
10
0.0
20
-19507.2
0
LWPOLYLINE
8
A-AREA-STOCKROOM
90
4
70
1
10
22555.2
20
0.0
10
22555.2
20
-21336.0
10
33528.0
20
-21336.0
10
33528.0
20
0.0
0
LWPOLYLINE
8
A-AREA-OFFICE
90
4
70
1
10
29260.8
20
-17068.8
10
29260.8
20
-21336.0
10
33528.0
20
-21336.0
10
33528.0
20
-17068.8
0
LWPOLYLINE
8
C-PARKING-STALL
90
4
70
1
10
-21945.6
20
0.0
10
-21945.6
20
-21336.0
10
-609.6
20
-21336.0
10
-609.6
20
0.0
0
LWPOLYLINE
8
FIXTURE-BULK-BIN
90
4
70
1
10
6705.6
20
0.0
10
6705.6
20
-914.4
10
17678.4
20
-914.4
10
17678.4
20
0.0
0
LWPOLYLINE
8
FIXTURE-WALL-SHELF
90
4
70
1
10
1524.0
20
0.0
10
1524.0
20
-914.4
10
5181.6
20
-914.4
10
5181.6
20
0.0
0
INSERT
8
FIXTURE-GONDOLA
2
GONDOLA_BAY
10
6705.6
20
-4876.8
50
0
0
INSERT
8
FIXTURE-GONDOLA
2
GONDOLA_BAY
10
7924.8
20
-4876.8
50
0
0
INSERT
8
FIXTURE-GONDOLA
2
GONDOLA_BAY
10
9144
20
-4876.8
50
0
0
INSERT
8
FIXTURE-GONDOLA
2
GONDOLA_BAY
10
10363.2
20
-4876.8
50
0
0
INSERT
8
FIXTURE-GONDOLA
2
GONDOLA_BAY
10
11582.4
20
-4876.8
50
0
0
INSERT
8
FIXTURE-GONDOLA
2
GONDOLA_BAY
10
12801.6
20
-4876.8
50
0
0
INSERT
8
FIXTURE-GONDOLA
2
GONDOLA_BAY
10
14020.800000000001
20
-4876.8
50
0
0
INSERT
8
FIXTURE-GONDOLA
2
GONDOLA_BAY
10
15240
20
-4876.8
50
0
0
INSERT
8
FIXTURE-GONDOLA
2
GONDOLA_BAY
10
16459.2
20
-4876.8
50
0
0
INSERT
8
FIXTURE-GONDOLA
2
GONDOLA_BAY
10
6705.6
20
-7924.8
50
0
0
INSERT
8
FIXTURE-GONDOLA
2
GONDOLA_BAY
10
7924.8
20
-7924.8
50
0
0
INSERT
8
FIXTURE-GONDOLA
2
GONDOLA_BAY
10
9144
20
-7924.8
50
0
0
INSERT
8
FIXTURE-GONDOLA
2
GONDOLA_BAY
10
10363.2
20
-7924.8
50
0
0
INSERT
8
FIXTURE-GONDOLA
2
GONDOLA_BAY
10
11582.4
20
-7924.8
50
0
0
INSERT
8
FIXTURE-GONDOLA
2
GONDOLA_BAY
10
12801.6
20
-7924.8
50
0
0
INSERT
8
FIXTURE-GONDOLA
2
GONDOLA_BAY
10
14020.800000000001
20
-7924.8
50
0
0
INSERT
8
FIXTURE-GONDOLA
2
GONDOLA_BAY
10
15240
20
-7924.8
50
0
0
INSERT
8
FIXTURE-GONDOLA
2
GONDOLA_BAY
10
16459.2
20
-7924.8
50
0
0
INSERT
8
FIXTURE-GONDOLA
2
GONDOLA_BAY
10
6705.6
20
-10972.800000000001
50
0
0
INSERT
8
FIXTURE-GONDOLA
2
GONDOLA_BAY
10
7924.8
20
-10972.800000000001
50
0
0
INSERT
8
FIXTURE-GONDOLA
2
GONDOLA_BAY
10
9144
20
-10972.800000000001
50
0
0
INSERT
8
FIXTURE-GONDOLA
2
GONDOLA_BAY
10
10363.2
20
-10972.800000000001
50
0
0
INSERT
8
FIXTURE-GONDOLA
2
GONDOLA_BAY
10
11582.4
20
-10972.800000000001
50
0
0
INSERT
8
FIXTURE-GONDOLA
2
GONDOLA_BAY
10
12801.6
20
-10972.800000000001
50
0
0
INSERT
8
FIXTURE-GONDOLA
2
GONDOLA_BAY
10
14020.800000000001
20
-10972.800000000001
50
0
0
INSERT
8
FIXTURE-GONDOLA
2
GONDOLA_BAY
10
15240
20
-10972.800000000001
50
0
0
INSERT
8
FIXTURE-GONDOLA
2
GONDOLA_BAY
10
16459.2
20
-10972.800000000001
50
0
0
INSERT
8
FIXTURE-GONDOLA
2
GONDOLA_BAY
10
6705.6
20
-14020.800000000001
50
0
0
INSERT
8
FIXTURE-GONDOLA
2
GONDOLA_BAY
10
7924.8
20
-14020.800000000001
50
0
0
INSERT
8
FIXTURE-GONDOLA
2
GONDOLA_BAY
10
9144
20
-14020.800000000001
50
0
0
INSERT
8
FIXTURE-GONDOLA
2
GONDOLA_BAY
10
10363.2
20
-14020.800000000001
50
0
0
INSERT
8
FIXTURE-GONDOLA
2
GONDOLA_BAY
10
11582.4
20
-14020.800000000001
50
0
0
INSERT
8
FIXTURE-GONDOLA
2
GONDOLA_BAY
10
12801.6
20
-14020.800000000001
50
0
0
INSERT
8
FIXTURE-GONDOLA
2
GONDOLA_BAY
10
14020.800000000001
20
-14020.800000000001
50
0
0
INSERT
8
FIXTURE-GONDOLA
2
GONDOLA_BAY
10
15240
20
-14020.800000000001
50
0
0
INSERT
8
FIXTURE-GONDOLA
2
GONDOLA_BAY
10
16459.2
20
-14020.800000000001
50
0
0
LWPOLYLINE
8
FIXTURE-ENDCAP
90
4
70
1
10
5943.6
20
-3657.6
10
5943.6
20
-4876.8
10
6705.6
20
-4876.8
10
6705.6
20
-3657.6
0
LWPOLYLINE
8
FIXTURE-ENDCAP
90
4
70
1
10
17678.4
20
-3657.6
10
17678.4
20
-4876.8
10
18440.4
20
-4876.8
10
18440.4
20
-3657.6
0
LWPOLYLINE
8
FIXTURE-ENDCAP
90
4
70
1
10
5943.6
20
-6705.6
10
5943.6
20
-7924.8
10
6705.6
20
-7924.8
10
6705.6
20
-6705.6
0
LWPOLYLINE
8
FIXTURE-ENDCAP
90
4
70
1
10
17678.4
20
-6705.6
10
17678.4
20
-7924.8
10
18440.4
20
-7924.8
10
18440.4
20
-6705.6
0
LWPOLYLINE
8
FIXTURE-ENDCAP
90
4
70
1
10
5943.6
20
-9753.6
10
5943.6
20
-10972.8
10
6705.6
20
-10972.8
10
6705.6
20
-9753.6
0
LWPOLYLINE
8
FIXTURE-ENDCAP
90
4
70
1
10
17678.4
20
-9753.6
10
17678.4
20
-10972.8
10
18440.4
20
-10972.8
10
18440.4
20
-9753.6
0
LWPOLYLINE
8
FIXTURE-ENDCAP
90
4
70
1
10
5943.6
20
-12801.6
10
5943.6
20
-14020.8
10
6705.6
20
-14020.8
10
6705.6
20
-12801.6
0
LWPOLYLINE
8
FIXTURE-ENDCAP
90
4
70
1
10
17678.4
20
-12801.6
10
17678.4
20
-14020.8
10
18440.4
20
-14020.8
10
18440.4
20
-12801.6
0
LWPOLYLINE
8
A-CASE-SHOWCASE
90
4
70
1
10
7315.2
20
-17221.2
10
7315.2
20
-18135.6
10
14630.4
20
-18135.6
10
14630.4
20
-17221.2
0
LWPOLYLINE
8
FIXTURE-IMPULSE
90
4
70
1
10
1828.8
20
-16703.0
10
1828.8
20
-17068.8
10
5486.4
20
-17068.8
10
5486.4
20
-16703.0
0
LWPOLYLINE
8
FIXTURE-SEASONAL
90
4
70
1
10
1828.8
20
-8534.4
10
1828.8
20
-9753.6
10
4572.0
20
-9753.6
10
4572.0
20
-8534.4
0
LWPOLYLINE
8
FIXTURE-SEASONAL
90
4
70
1
10
1828.8
20
-11582.4
10
1828.8
20
-12801.6
10
4572.0
20
-12801.6
10
4572.0
20
-11582.4
0
LWPOLYLINE
8
STOCKROOM-PALLET-RACK
90
4
70
1
10
24384.0
20
-609.6
10
24384.0
20
-1828.8
10
30480.0
20
-1828.8
10
30480.0
20
-609.6
0
LWPOLYLINE
8
STOCKROOM-PALLET-RACK
90
4
70
1
10
24384.0
20
-4267.2
10
24384.0
20
-5486.4
10
30480.0
20
-5486.4
10
30480.0
20
-4267.2
0
LWPOLYLINE
8
STOCKROOM-BACK-STOCK-SHELF
90
4
70
1
10
24384.0
20
-8839.2
10
24384.0
20
-9448.8
10
29870.4
20
-9448.8
10
29870.4
20
-8839.2
0
LWPOLYLINE
8
STOCKROOM-BACK-STOCK-SHELF
90
4
70
1
10
24384.0
20
-11277.6
10
24384.0
20
-11887.2
10
29870.4
20
-11887.2
10
29870.4
20
-11277.6
0
LWPOLYLINE
8
POS-CHECKOUT
90
4
70
1
10
2133.6
20
-17221.2
10
2133.6
20
-18135.6
10
2743.2
20
-18135.6
10
2743.2
20
-17221.2
0
LWPOLYLINE
8
POS-CHECKOUT
90
4
70
1
10
4267.2
20
-17221.2
10
4267.2
20
-18135.6
10
4876.8
20
-18135.6
10
4876.8
20
-17221.2
0
LWPOLYLINE
8
SERVICE-STATION
90
4
70
1
10
8839.2
20
-18440.4
10
8839.2
20
-19354.8
10
9448.8
20
-19354.8
10
9448.8
20
-18440.4
0
LWPOLYLINE
8
SERVICE-STATION
90
4
70
1
10
12496.8
20
-18440.4
10
12496.8
20
-19354.8
10
13106.4
20
-19354.8
10
13106.4
20
-18440.4
0
LWPOLYLINE
8
GIFT-WRAP
90
4
70
1
10
15544.8
20
-17221.2
10
15544.8
20
-18135.6
10
16154.4
20
-18135.6
10
16154.4
20
-17221.2
0
INSERT
8
A-DOOR-ENTRANCE
2
DOOR_8FT
10
0
20
-10668
50
-90
0
INSERT
8
A-DOOR-ROLLUP
2
DOOR_12FT
10
33528
20
-12801.6
50
-90
0
INSERT
8
A-DOOR-DOCK
2
DOOR_10FT
10
33528
20
-15849.6
50
-90
0
INSERT
8
A-DOOR-DOCK
2
DOOR_10FT
10
33528
20
-18897.600000000002
50
-90
0
TEXT
8
A-ANNO-TEXT
10
0
20
0
40
300
1
SAMPLE CANDY SHOP
0
LWPOLYLINE
8
A-ANNO-DIMS
90
2
70
0
10
-1219.2
20
0.0
10
-1219.2
20
-21336.0
0
ENDSEC
0
EOF
